<svg width="321" height="302" viewBox="0 0 321 302" fill="none" xmlns="http://www.w3.org/2000/svg">
<path d="M73.9346 199.247C75.434 193.071 82.7506 190.432 87.8447 194.23C90.6937 196.355 91.9998 199.976 91.1621 203.431L72.9443 278.549L139.012 239.677C142.324 237.728 146.482 237.955 149.562 240.252C155.056 244.348 154.579 252.727 148.656 256.173L74.0303 299.596C69.1686 302.425 63.0884 302.078 58.5791 298.716C54.0649 295.35 51.9974 289.611 53.3262 284.138L73.9346 199.247ZM231.053 194.988C236.5 190.831 244.421 193.594 246.104 200.237L267.316 283.957C268.698 289.411 266.694 295.163 262.223 298.576C257.746 301.993 251.663 302.403 246.768 299.62L170.85 256.456C165.326 253.316 164.802 245.552 169.853 241.697C172.677 239.541 176.517 239.281 179.606 241.036L246.791 279.213L227.599 204.978C226.637 201.256 227.998 197.32 231.053 194.988ZM212.399 106.088C210.626 99.4678 216.192 93.1875 222.975 94.1553L308.44 106.35C314.008 107.144 318.565 111.185 320.021 116.62C321.478 122.06 319.546 127.846 315.112 131.317L246.347 185.159C241.343 189.076 233.967 186.611 232.322 180.472C231.403 177.038 232.622 173.387 235.419 171.195L296.252 123.538L220.323 113.081C216.516 112.557 213.394 109.801 212.399 106.088ZM99.4814 93.8545C105.787 93.0746 110.841 98.9895 109.09 105.099C108.11 108.516 105.186 111.018 101.659 111.455L24.9795 120.96L84.6807 169.047C87.6737 171.458 88.9311 175.428 87.8721 179.123C85.9837 185.711 77.9799 188.228 72.6641 183.903L5.68359 129.414C1.3201 125.864 -0.505103 120.053 1.04492 114.645C2.59674 109.23 7.23075 105.267 12.8184 104.575L99.4814 93.8545ZM159.862 0.5C165.492 0.500085 170.578 3.86442 172.782 9.04688L206.971 89.4316C209.458 95.2798 205.168 101.771 198.814 101.771C195.261 101.77 192.051 99.6474 190.659 96.377L160.391 25.2588L130.642 95.9238C129.15 99.4666 125.682 101.771 121.839 101.771C114.987 101.771 110.365 94.7672 113.055 88.4639L146.948 9.03223C149.156 3.85761 154.238 0.5 159.862 0.5Z" fill="url(#paint0_linear_1460_3467)" stroke="white"/>
<defs>
<linearGradient id="paint0_linear_1460_3467" x1="116" y1="119" x2="278" y2="318.5" gradientUnits="userSpaceOnUse">
<stop stop-color="#AFC7FF"/>
<stop offset="1" stop-color="#2761EA"/>
</linearGradient>
</defs>
</svg>
