<svg width="147" height="300" viewBox="0 0 147 300" fill="none" xmlns="http://www.w3.org/2000/svg">
<path d="M12.3167 82.4599C14.0707 80.8655 16.7873 80.9682 18.3354 82.7631C33.9417 100.858 43.3791 124.423 43.3791 150.193C43.3791 176.119 33.8264 199.813 18.0504 217.951C16.5117 219.72 13.8313 219.832 12.0781 218.275L0.782122 208.247C0.284675 207.806 0 207.172 0 206.507C0 205.921 0.222041 205.358 0.615092 204.923C13.7119 190.447 21.6896 171.252 21.6896 150.193C21.6896 128.998 13.6085 109.69 0.360225 95.1818C0.129444 94.9291 0 94.5998 0 94.2576C0 93.8745 0.161578 93.5093 0.444992 93.2517L12.3167 82.4599Z" fill="#2761EA"/>
<path d="M44.1071 41.2504C45.8611 39.656 48.5747 39.7609 50.1498 41.5322C75.8351 70.417 91.4383 108.466 91.4383 150.16L91.4351 151.217C91.1722 192.731 75.4407 230.573 49.7158 259.273C48.151 261.018 45.4735 261.133 43.7202 259.576L33.9985 250.945C32.1625 249.315 32.0491 246.492 33.6854 244.662C56.1132 219.574 69.7487 186.459 69.7487 150.16C69.7487 114.135 56.3187 81.2457 34.1921 56.2272C32.5855 54.4106 32.6889 51.6293 34.4835 49.9981L44.1071 41.2504Z" fill="#97B3F5"/>
<path d="M83.2923 1.12611C85.0463 -0.468267 87.7587 -0.362487 89.3458 1.39804C124.744 40.6638 146.293 92.6591 146.293 149.688L146.288 151.121C145.929 207.895 124.212 259.602 88.7701 298.614C87.1935 300.349 84.5173 300.464 82.764 298.908L73.0383 290.273C71.204 288.645 71.0874 285.823 72.7364 284.008C104.963 248.523 124.603 201.399 124.603 149.688C124.603 98.3265 105.228 51.4905 73.3885 16.0894C71.7675 14.2871 71.8733 11.5061 73.667 9.87566L83.2923 1.12611Z" fill="#D4E1FF"/>
</svg>
