<svg width="286" height="301" viewBox="0 0 286 301" fill="none" xmlns="http://www.w3.org/2000/svg">

    <path d="M27.7705 0.5C38.7106 0.500115 48.5894 7.039 52.855 17.1039L143.828 231.76L199.135 102.678V230.619L179.362 276.801C173.207 291.176 159.064 300.5 143.414 300.5H141.075C125.442 300.5 111.311 291.196 105.145 276.843L2.73785 38.4486C-4.97723 20.4887 8.20809 0.5 27.7705 0.5Z"
          fill="#2761EA"/>

    <path d="M217.512 190.734V158.312L224.159 151.672V98.1562L206.564 88.0075M222.986 178.234V133.703L237.843 118.859V74.6702M237.843 74.6702V15.7344M237.843 74.6702L246.054 79.4062V125.109M237.843 74.6702L225.738 67.6875V43.4688M256.611 100.5V66.9062L248.755 62.3749M248.755 62.3749L243.744 59.4844V14.9531L257.429 1.28125M248.755 62.3749L265.572 45.781M248.755 62.3749L207.346 103.234V214.172M275.379 55.5781L265.572 45.781M265.572 45.781L260.521 40.7344V19.25M265.572 45.781L270.687 40.7344V3.625"
          stroke="#2761EA" stroke-linecap="round"/>

</svg>