<svg width="200" height="29" viewBox="0 0 200 29" fill="none" xmlns="http://www.w3.org/2000/svg">
<path d="M12.6754 26.7847C10.8679 26.7847 9.18458 26.4855 7.62557 25.8871C6.08916 25.2657 4.7448 24.4026 3.59249 23.2978C2.46278 22.17 1.5816 20.8466 0.94896 19.3276C0.31632 17.8085 0 16.1514 0 14.3562C0 12.5609 0.31632 10.9038 0.94896 9.38473C1.5816 7.86568 2.47407 6.55378 3.62638 5.44902C4.77869 4.32124 6.12305 3.45814 7.65946 2.85973C9.19587 2.2383 10.8791 1.92758 12.7093 1.92758C14.6524 1.92758 16.426 2.27282 18.0302 2.96329C19.6344 3.63075 20.9901 4.63195 22.0972 5.96687L19.2503 8.69425C18.3917 7.7506 17.4315 7.04862 16.3696 6.5883C15.3076 6.10497 14.1553 5.8633 12.9126 5.8633C11.6699 5.8633 10.5289 6.07045 9.4896 6.48473C8.47286 6.89902 7.58038 7.48592 6.81218 8.24544C6.06657 9.00497 5.47911 9.90259 5.04982 10.9383C4.64313 11.974 4.43978 13.1133 4.43978 14.3562C4.43978 15.599 4.64313 16.7383 5.04982 17.774C5.47911 18.8097 6.06657 19.7073 6.81218 20.4669C7.58038 21.2264 8.47286 21.8133 9.4896 22.2276C10.5289 22.6419 11.6699 22.849 12.9126 22.849C14.1553 22.849 15.3076 22.6189 16.3696 22.1585C17.4315 21.6752 18.3917 20.9502 19.2503 19.9835L22.0972 22.7454C20.9901 24.0573 19.6344 25.0585 18.0302 25.749C16.426 26.4395 14.6411 26.7847 12.6754 26.7847Z" fill="black"/>
<path d="M36.1812 7.79663C37.6273 7.79663 38.9151 8.08433 40.0448 8.65973C41.1971 9.23512 42.1009 10.1212 42.7562 11.3181C43.4114 12.4919 43.739 14.0109 43.739 15.8752V26.4395H39.5026V16.4276C39.5026 14.7935 39.1185 13.5736 38.3503 12.7681C37.6047 11.9625 36.554 11.5597 35.1984 11.5597C34.2042 11.5597 33.323 11.7669 32.5548 12.1812C31.7866 12.5954 31.1879 13.2169 30.7586 14.0454C30.3519 14.851 30.1485 15.8752 30.1485 17.1181V26.4395H25.9121V0.822821H30.1485V12.9752L29.2335 11.4562C29.8661 10.2824 30.7812 9.38473 31.9787 8.7633C33.1988 8.11886 34.5996 7.79663 36.1812 7.79663Z" fill="black"/>
<path d="M57.653 26.6812C55.6421 26.6812 53.8798 26.2784 52.366 25.4728C50.8747 24.6442 49.7111 23.5165 48.8751 22.0895C48.0618 20.6625 47.6551 19.0399 47.6551 17.2216C47.6551 15.3804 48.0504 13.7577 48.8413 12.3538C49.6546 10.9268 50.7618 9.81052 52.1626 9.00497C53.5861 8.19941 55.2015 7.79663 57.0091 7.79663C58.7714 7.79663 60.3417 8.1879 61.72 8.97044C63.0982 9.75298 64.1828 10.8577 64.9736 12.2847C65.7644 13.7117 66.1598 15.3919 66.1598 17.3252C66.1598 17.5093 66.1485 17.7165 66.1259 17.9466C66.1259 18.1768 66.1146 18.3954 66.092 18.6026H51.0103V15.7371H63.8552L62.1945 16.6347C62.2171 15.576 62.0024 14.6439 61.5505 13.8383C61.0987 13.0327 60.4773 12.3998 59.6865 11.9395C58.9183 11.4792 58.0258 11.249 57.0091 11.249C55.9697 11.249 55.0547 11.4792 54.2639 11.9395C53.4957 12.3998 52.8856 13.0443 52.4337 13.8728C52.0045 14.6784 51.7898 15.6335 51.7898 16.7383V17.4288C51.7898 18.5335 52.0383 19.5117 52.5354 20.3633C53.0325 21.2149 53.7329 21.8708 54.6367 22.3312C55.5405 22.7915 56.5798 23.0216 57.7547 23.0216C58.7714 23.0216 59.6865 22.8605 60.4999 22.5383C61.3133 22.2161 62.0363 21.7097 62.669 21.0193L64.9397 23.6776C64.1263 24.6442 63.0982 25.3923 61.8556 25.9216C60.6355 26.428 59.2346 26.6812 57.653 26.6812Z" fill="black"/>
<path d="M78.5325 26.6812C76.6346 26.6812 74.94 26.2784 73.4488 25.4728C71.9802 24.6442 70.8279 23.5165 69.9919 22.0895C69.1559 20.6625 68.7379 19.0399 68.7379 17.2216C68.7379 15.3804 69.1559 13.7577 69.9919 12.3538C70.8279 10.9268 71.9802 9.81052 73.4488 9.00497C74.94 8.19941 76.6346 7.79663 78.5325 7.79663C80.2949 7.79663 81.8426 8.16489 83.1757 8.9014C84.5313 9.61489 85.5593 10.6736 86.2598 12.0776L83.0062 14.0109C82.4639 13.1363 81.7974 12.4919 81.0066 12.0776C80.2384 11.6633 79.4024 11.4562 78.4986 11.4562C77.4593 11.4562 76.5216 11.6863 75.6856 12.1466C74.8497 12.607 74.1944 13.2744 73.7199 14.149C73.2455 15.0006 73.0082 16.0248 73.0082 17.2216C73.0082 18.4185 73.2455 19.4542 73.7199 20.3288C74.1944 21.1804 74.8497 21.8363 75.6856 22.2966C76.5216 22.757 77.4593 22.9871 78.4986 22.9871C79.4024 22.9871 80.2384 22.78 81.0066 22.3657C81.7974 21.9514 82.4639 21.3069 83.0062 20.4323L86.2598 22.3657C85.5593 23.7466 84.5313 24.8169 83.1757 25.5764C81.8426 26.3129 80.2949 26.6812 78.5325 26.6812Z" fill="black"/>
<path d="M93.2133 22.3312L93.315 16.9109L102.771 8.00378H107.854L99.8222 16.2204L97.5853 18.1192L93.2133 22.3312ZM89.7564 26.4395V0.822821H93.9928V26.4395H89.7564ZM103.415 26.4395L96.8058 18.1192L99.4833 14.6669L108.566 26.4395H103.415Z" fill="black"/>
<path d="M123.012 28.5972C121.812 28.5972 120.728 27.8826 120.255 26.7803L110.466 3.96891C109.741 2.28113 110.979 0.402776 112.816 0.402776C113.843 0.402776 114.771 1.0173 115.171 1.96319L125.305 25.8986H122.102L132.402 1.83606C132.774 0.96662 133.629 0.402776 134.574 0.402776C136.27 0.402776 137.414 2.13614 136.747 3.69536L126.874 26.777C126.402 27.8811 125.317 28.5972 124.116 28.5972H123.012Z" fill="#2761EA"/>
<path d="M141.115 28.5972V0.402776H146.255V28.5972H141.115Z" fill="black"/>
<path d="M158.486 12.1236H172.246V16.4333H158.486V12.1236ZM158.881 24.2069H174.5V28.5972H153.741V0.402776H173.946V4.79306H158.881V24.2069Z" fill="black"/>
<path d="M188.81 29C186.649 29 184.579 28.6912 182.602 28.0736C180.625 27.4292 179.057 26.6102 177.897 25.6167L179.676 21.5486C180.784 22.4347 182.154 23.1732 183.789 23.7639C185.423 24.3546 187.097 24.65 188.81 24.65C190.26 24.65 191.433 24.4889 192.329 24.1667C193.225 23.8444 193.884 23.4148 194.306 22.8778C194.728 22.3139 194.939 21.6829 194.939 20.9847C194.939 20.1255 194.636 19.4407 194.029 18.9306C193.423 18.3935 192.632 17.9773 191.657 17.6819C190.708 17.3597 189.641 17.0644 188.454 16.7958C187.294 16.5273 186.121 16.2185 184.935 15.8695C183.775 15.4935 182.708 15.0236 181.733 14.4597C180.784 13.869 180.006 13.0903 179.4 12.1236C178.793 11.157 178.49 9.92176 178.49 8.41806C178.49 6.88751 178.886 5.49121 179.676 4.22917C180.494 2.94028 181.719 1.91991 183.354 1.16806C185.014 0.389353 187.11 0 189.641 0C191.301 0 192.949 0.214817 194.583 0.644447C196.217 1.07408 197.641 1.69167 198.853 2.49723L197.232 6.56528C195.993 5.81343 194.715 5.26297 193.397 4.9139C192.079 4.53797 190.814 4.35 189.601 4.35C188.178 4.35 187.018 4.52454 186.121 4.87362C185.252 5.22269 184.606 5.67918 184.184 6.24307C183.789 6.80695 183.591 7.4514 183.591 8.1764C183.591 9.03565 183.881 9.7338 184.461 10.2708C185.067 10.781 185.845 11.1838 186.794 11.4792C187.769 11.7745 188.85 12.0699 190.036 12.3653C191.222 12.6338 192.395 12.9426 193.555 13.2917C194.741 13.6408 195.809 14.0972 196.758 14.6611C197.733 15.225 198.511 15.9903 199.091 16.9569C199.697 17.9236 200 19.1454 200 20.6222C200 22.1259 199.591 23.5222 198.774 24.8111C197.983 26.0732 196.758 27.0935 195.097 27.8722C193.436 28.6241 191.341 29 188.81 29Z" fill="black"/>
</svg>
